<?xml version="1.0" standalone="no"?>
<!DOCTYPE svg PUBLIC "-//W3C//DTD SVG 20010904//EN"
 "http://www.w3.org/TR/2001/REC-SVG-20010904/DTD/svg10.dtd">
<svg version="1.0" xmlns="http://www.w3.org/2000/svg"
 width="480.000000pt" height="480.000000pt" viewBox="0 0 480.000000 480.000000"
 preserveAspectRatio="xMidYMid meet">
<metadata>
Created by potrace 1.11, written by Peter Selinger 2001-2013
</metadata>
<g transform="translate(0.000000,480.000000) scale(0.100000,-0.100000)"
fill="#000000" stroke="none">
<path d="M2210 4793 c-252 -23 -541 -94 -750 -185 -77 -34 -262 -128 -291
-149 -15 -10 -30 -19 -33 -19 -7 0 -167 -113 -226 -159 -325 -259 -604 -635
-745 -1006 -62 -164 -123 -395 -140 -534 -4 -30 -9 -63 -12 -75 -8 -37 -11
-399 -3 -476 15 -141 22 -185 45 -295 141 -653 544 -1214 1120 -1558 223 -133
551 -259 765 -292 14 -2 51 -9 83 -14 189 -33 546 -36 722 -6 123 21 137 23
209 40 721 168 1338 682 1643 1370 63 142 145 403 159 510 3 17 7 41 10 55 19
82 32 279 29 451 -1 108 -4 200 -7 205 -3 5 -9 38 -12 74 -14 136 -69 350
-131 516 -155 414 -434 788 -795 1065 -250 192 -549 336 -860 414 -114 29
-139 34 -320 60 -41 7 -409 13 -460 8z"/>
</g>
</svg>
